<svg preserveAspectRatio="xMidYMid meet" data-bbox="26.35 11.76 344.15 73.11" viewBox="26.35 11.76 344.15 73.11" xmlns="http://www.w3.org/2000/svg" data-type="color" role="img" aria-label="Lastro logo"><defs><style>#comp-kbgakxea_r_comp-ma4a8ymn svg [data-color="1"] {fill: #FFFFFF;}</style></defs>
    <g>
        <path d="M134.76 18.02h10.17v52.43h29.88v8.1h-40.05z" fill="#ffffff" data-color="1"></path>
        <path d="M179.26 46.59c1.54-10.5 8.9-16.73 20.98-16.73 13.17 0 19.71 7.57 19.71 18.6v18.51c0 5.7.07 11.57.07 11.57h-9.64s.03-4.27-.06-6.94c-4.09 5.61-10.35 8.1-16.17 8.1-9.81 0-16.53-4.54-16.53-13.62 0-6.5 3.63-11.3 10.9-13.71 6.45-2.14 12.99-2.67 21.7-2.76v-1.07c0-6.94-3.27-10.68-10.72-10.68-6.27 0-9.63 3.38-10.53 8.72h-9.72Zm16.71 25.64c8.08 0 14.26-6.32 14.26-13.98v-2.14c-18.62.18-22.79 4.18-22.79 9.61 0 4.01 3.36 6.5 8.54 6.5Z" fill="#ffffff" data-color="1"></path>
        <path d="M265.52 64.84c0 8.99-8.26 14.87-19.98 14.87s-19.98-5.34-21.8-16.65h9.72c1 5.96 5.54 9.26 12.35 9.26s9.99-2.85 9.99-6.85c0-11.84-30.51-1.87-30.51-21.36 0-7.39 5.9-14.24 18.16-14.24 10.81 0 18.8 4.9 20.34 16.73h-9.72c-1.09-6.68-4.9-9.17-11.08-9.17-5.36 0-8.45 2.58-8.45 6.14 0 12.11 30.97 1.96 30.97 21.27Z" fill="#ffffff" data-color="1"></path>
        <path d="M271.96 38.49h-6.54V31.1h6.54V20.15h9.72V31.1h10.44v7.39h-10.44v25.37c0 5.43 1.54 8.01 8.36 8.01h1.91v6.94c-1.09.53-3.36.89-6.08.89-9.44 0-13.89-5.07-13.89-15.31v-25.9Z" fill="#ffffff" data-color="1"></path>
        <path d="M297.4 31.11h9.72v7.03c3.18-5.7 8.17-8.28 13.8-8.28 1.91 0 3.72.44 4.63 1.25v8.37c-1.45-.45-3.18-.62-5.18-.62-9.26 0-13.26 5.52-13.26 13.8v25.9h-9.72V31.11Z" fill="#ffffff" data-color="1"></path>
        <path d="M325.28 54.87c0-16.11 8.81-25.01 22.61-25.01s22.61 9.52 22.61 25.01-8.81 24.83-22.61 24.83-22.61-9.35-22.61-24.83m35.33 0c0-10.86-4.54-17-12.71-17s-12.71 5.96-12.71 17 4.54 16.82 12.71 16.82 12.71-5.87 12.71-16.82" fill="#ffffff" data-color="1"></path>
        <path fill="#ffffff" d="m63.32 15.32 5.98 1.04-1.84 10.37 3.8.66 2.47-13.93-9.78-1.7z" data-color="1"></path>
        <path fill="#ffffff" d="m82.79 37.87 10.95-9.1-6.39-7.53-2.8 2.33 3.91 4.6-8.15 6.78z" data-color="1"></path>
        <path fill="#ffffff" d="M95.47 49.41H84.82v3.82h14.3V43.4h-3.65z" data-color="1"></path>
        <path fill="#ffffff" d="m87.03 70.13-8.15-6.77-2.48 2.92 10.95 9.1 6.39-7.52-2.8-2.33z" data-color="1"></path>
        <path fill="#ffffff" d="m67.11 80.65-1.83-10.37-3.8.65 2.47 13.94 9.78-1.7-.63-3.56z" data-color="1"></path>
        <path fill="#ffffff" d="m47.02 65.01-7.16 12.24 8.59 4.92 1.83-3.13-5.26-3.01 5.33-9.12z" data-color="1"></path>
        <path fill="#ffffff" d="m41.1 54.84-1.32-3.58-13.43 4.84 3.39 9.23 3.44-1.23-2.08-5.65z" data-color="1"></path>
        <path fill="#ffffff" d="m31.86 36.12 10 3.6 1.32-3.59-13.44-4.83-3.39 9.23 3.43 1.23z" data-color="1"></path>
        <path fill="#ffffff" d="m39.86 19.38 1.83 3.13 5.26-3.01 5.32 9.11 3.34-1.91-7.16-12.24z" data-color="1"></path>
    </g>
</svg>